<svg width="24" height="25" viewBox="0 0 24 25" fill="none" xmlns="http://www.w3.org/2000/svg">
<path d="M20.3034 4.3411C19.1121 3.14814 17.5536 2.39136 15.8794 2.19287C14.2052 1.99439 12.513 2.36578 11.0758 3.24711C9.63854 4.12845 8.54018 5.46832 7.95793 7.05051C7.37568 8.63271 7.34349 10.3649 7.86657 11.9677L2.6897 17.1445C2.5498 17.2833 2.43889 17.4485 2.36341 17.6306C2.28792 17.8126 2.24938 18.0078 2.25001 18.2049V20.8945C2.25001 21.2924 2.40804 21.6739 2.68935 21.9552C2.97065 22.2365 3.35218 22.3945 3.75001 22.3945H6.75001C6.94892 22.3945 7.13969 22.3155 7.28034 22.1749C7.42099 22.0342 7.50001 21.8435 7.50001 21.6445V20.1445H9.00001C9.19892 20.1445 9.38969 20.0655 9.53034 19.9249C9.67099 19.7842 9.75001 19.5935 9.75001 19.3945V17.8945H11.25C11.3485 17.8946 11.4461 17.8753 11.5371 17.8376C11.6282 17.8 11.7109 17.7448 11.7806 17.6752L12.6769 16.778C13.4271 17.022 14.2111 17.1457 15 17.1445H15.0094C16.492 17.1427 17.9408 16.7016 19.1728 15.8767C20.4048 15.0519 21.3646 13.8805 21.9312 12.5104C22.4977 11.1403 22.6454 9.63301 22.3557 8.17899C22.066 6.72497 21.3518 5.38943 20.3034 4.3411ZM16.875 9.26954C16.5783 9.26954 16.2883 9.18156 16.0417 9.01674C15.795 8.85192 15.6027 8.61765 15.4892 8.34356C15.3757 8.06947 15.346 7.76787 15.4038 7.4769C15.4617 7.18593 15.6046 6.91866 15.8143 6.70888C16.0241 6.4991 16.2914 6.35624 16.5824 6.29836C16.8733 6.24048 17.1749 6.27019 17.449 6.38372C17.7231 6.49725 17.9574 6.68951 18.1222 6.93618C18.287 7.18286 18.375 7.47287 18.375 7.76954C18.375 8.16736 18.217 8.54889 17.9357 8.8302C17.6544 9.1115 17.2728 9.26954 16.875 9.26954Z" fill="#03C068"/>
</svg>
