<svg width="24" height="25" viewBox="0 0 24 25" fill="none" xmlns="http://www.w3.org/2000/svg">
<path d="M20.3034 4.34109C19.1121 3.14813 17.5536 2.39134 15.8794 2.19286C14.2052 1.99437 12.513 2.36576 11.0758 3.2471C9.63854 4.12843 8.54018 5.4683 7.95793 7.0505C7.37568 8.63269 7.34349 10.3649 7.86657 11.9676L2.6897 17.1445C2.5498 17.2833 2.43889 17.4485 2.36341 17.6305C2.28792 17.8126 2.24938 18.0078 2.25001 18.2048V20.8945C2.25001 21.2923 2.40804 21.6739 2.68935 21.9552C2.97065 22.2365 3.35218 22.3945 3.75001 22.3945H6.75001C6.94892 22.3945 7.13969 22.3155 7.28034 22.1749C7.42099 22.0342 7.50001 21.8434 7.50001 21.6445V20.1445H9.00001C9.19892 20.1445 9.38969 20.0655 9.53034 19.9249C9.67099 19.7842 9.75001 19.5934 9.75001 19.3945V17.8945H11.25C11.3485 17.8946 11.4461 17.8753 11.5371 17.8376C11.6282 17.8 11.7109 17.7448 11.7806 17.6751L12.6769 16.778C13.4271 17.022 14.2111 17.1457 15 17.1445H15.0094C16.492 17.1427 17.9408 16.7015 19.1728 15.8767C20.4048 15.0519 21.3646 13.8805 21.9312 12.5104C22.4977 11.1403 22.6454 9.63299 22.3557 8.17897C22.066 6.72495 21.3518 5.38942 20.3034 4.34109ZM21 9.8414C20.8978 13.0373 18.2109 15.6408 15.0103 15.6445H15C14.2408 15.6458 13.4883 15.5023 12.7828 15.2217C12.6448 15.1618 12.492 15.1448 12.3442 15.1729C12.1964 15.201 12.0605 15.2729 11.9541 15.3792L10.9397 16.3945H9.00001C8.8011 16.3945 8.61033 16.4735 8.46968 16.6142C8.32903 16.7548 8.25001 16.9456 8.25001 17.1445V18.6445H6.75001C6.5511 18.6445 6.36033 18.7235 6.21968 18.8642C6.07903 19.0048 6.00001 19.1956 6.00001 19.3945V20.8945H3.75001V18.2048L9.26532 12.6905C9.37166 12.5841 9.44355 12.4481 9.47163 12.3003C9.49972 12.1525 9.48271 11.9997 9.42282 11.8617C9.14133 11.1539 8.99782 10.3988 9.00001 9.63702C9.00001 6.4364 11.6072 3.74952 14.8031 3.64734C15.6241 3.61994 16.4419 3.7614 17.2059 4.06294C17.97 4.36449 18.664 4.81971 19.2449 5.40039C19.8259 5.98108 20.2814 6.67487 20.5833 7.43877C20.8852 8.20268 21.027 9.02044 21 9.8414ZM18 7.76952C18 7.99203 17.934 8.20953 17.8104 8.39454C17.6868 8.57954 17.5111 8.72374 17.3055 8.80889C17.1 8.89404 16.8738 8.91632 16.6555 8.87291C16.4373 8.8295 16.2368 8.72235 16.0795 8.56502C15.9222 8.40768 15.815 8.20723 15.7716 7.989C15.7282 7.77077 15.7505 7.54457 15.8356 7.339C15.9208 7.13344 16.065 6.95774 16.25 6.83412C16.435 6.7105 16.6525 6.64452 16.875 6.64452C17.1734 6.64452 17.4595 6.76305 17.6705 6.97403C17.8815 7.18501 18 7.47115 18 7.76952Z" fill="#757575"/>
</svg>
